<svg id="Capa_1" data-name="Capa 1" xmlns="http://www.w3.org/2000/svg" xmlns:xlink="http://www.w3.org/1999/xlink" viewBox="0 0 86.89 142.56"><defs><style>.cls-1,.cls-4{fill:none;}.cls-2,.cls-4{stroke:#fff;stroke-miterlimit:10;}.cls-2{stroke-width:0.25px;isolation:isolate;opacity:0.5;}.cls-3{clip-path:url(#clip-path);}</style><clipPath id="clip-path" transform="translate(0.13 -0.47)"><circle class="cls-1" cx="43.37" cy="44.07" r="43.32"/></clipPath></defs><circle class="cls-2" cx="43.44" cy="43.44" r="43.32"/><g class="cls-3"><path class="cls-4" d="M29.42,49.83l-1.89-.2c.11-.72.21-1.43.34-2.14,2.3-.24,2.9-7,3.05-11.1l3.25-12.26a1.55,1.55,0,0,0-1.28-1.77,1.53,1.53,0,0,0-1.68,1l-2.4,9.13-.53-.22,2.57-12.1a1.83,1.83,0,0,0-3.59-.74L24.74,31.31l-.62-.1,1.62-14.29a1.81,1.81,0,0,0-3.59-.45l-1.61,14.2L20,30.62l.35-12.11a1.8,1.8,0,0,0-3.59-.1L16.39,30.3h0s-.54,5-1.29,5.7c-1.47,1.3-2.56-5.09-4.36-7.67a2.18,2.18,0,0,0-.52-.72,2.3,2.3,0,0,0-3.25.12s.72,1.64,1.55,3.77c1.68,4.33,2.06,11.07,6.67,14.66a5.48,5.48,0,0,1,.52,2.2l-2-.22-.44,4.09-1.09-.11L8.06,142.53H26.17L30,54,29,53.92Z" transform="translate(0.13 -0.47)"/><path class="cls-4" d="M56.68,41.32c1.06-2,1.94-3.59,1.94-3.59a2.31,2.31,0,0,0-3.24-.44,2.07,2.07,0,0,0-.56.62c-2.08,2.38-3.84,8.64-5.17,7.17C49,44.33,49,39.25,49,39.25h0l.93-11.84a1.8,1.8,0,0,0-3.59-.27l-1,12h-.62L44.61,25A1.8,1.8,0,0,0,41,25l.13,14.39-.59,0-1.23-12.1a1.8,1.8,0,1,0-3.58.37L37,39.89l-.58.16L35,30.77a1.53,1.53,0,0,0-3,.48l1.84,12.53c-.28,4.06-.4,10.88,1.86,11.37.06.72.07,1.44.1,2.17H34v4.11H32.88v81.1h18V61.43H49.79V57.32h-2a5.68,5.68,0,0,1,.74-2.14C53.47,52.08,54.55,45.42,56.68,41.32Z" transform="translate(0.13 -0.47)"/><path class="cls-4" d="M78.54,24.31a1.54,1.54,0,0,0-1.8,1.23l-1.36,9.34c-.19-.06-.38-.12-.57-.16L76,22.49a1.8,1.8,0,0,0-3.59-.36L71.23,34.19l-.61,0,.15-14.33a1.8,1.8,0,0,0-3.59,0L67,34H66.4l-.94-12a1.8,1.8,0,1,0-3.59.29l.93,11.8h0s0,5.06-.66,5.81C60.77,41.4,59,35.14,57,32.79a2.28,2.28,0,0,0-.55-.61,2.34,2.34,0,0,0-3.27.41s.9,1.56,1.94,3.59c.14.27.27.55.41.85a1.36,1.36,0,0,1,.78-.22,1.48,1.48,0,0,1,.65.15,1.53,1.53,0,0,1,.68,2.67A1.5,1.5,0,0,1,57,40.88c1.32,3.43,2.91,7.1,6.25,9.17A5.57,5.57,0,0,1,64,52.17H62v3.22h-.8v75.12h18V55.39H77.84V52.17H76c0-.73,0-1.45.11-2.18,2.24-.47,2.12-7.28,1.84-11.35l1.85-12.52A1.55,1.55,0,0,0,78.54,24.31Z" transform="translate(0.13 -0.47)"/></g></svg>