<svg id="Capa_1" data-name="Capa 1" xmlns="http://www.w3.org/2000/svg" viewBox="0 0 86.64 86.64"><defs><style>.cls-1{opacity:0.5;}.cls-2{fill:#daecee;}.cls-3{fill:#4e9f46;}.cls-4{fill:#ef4f32;}.cls-5{fill:#25783c;}.cls-6{fill:#ffc633;}.cls-7{fill:#b5bebf;}.cls-8{fill:#8b8a8a;}.cls-9{fill:#5c5b5b;}.cls-10{fill:#c5cccc;}.cls-11{fill:#8ea5a9;}</style></defs><circle class="cls-1" cx="43.32" cy="43.32" r="43.32"/><path class="cls-2" d="M63.54,77.46h-39a.86.86,0,0,1-.86-.86v-49a.85.85,0,0,1,.86-.86H51.23L64.4,39.93V76.6A.86.86,0,0,1,63.54,77.46Z" transform="translate(-7.87 -7.67)"/><rect class="cls-3" x="55.19" y="41.6" width="29.01" height="7.51" transform="translate(-14.07 71.65) rotate(-57.17)"/><path class="cls-4" d="M81.33,27.39l-.06,0a3.72,3.72,0,0,0-5.14,1.11l-1.72,2.67,6.3,4.07,1.73-2.67A3.72,3.72,0,0,0,81.33,27.39Z" transform="translate(-7.87 -7.67)"/><rect class="cls-5" x="76.54" y="29.97" width="1.32" height="7.51" transform="translate(-0.86 72.63) rotate(-57.17)"/><path class="cls-6" d="M69.33,46l0,0a1.71,1.71,0,0,1-.51-2.36l8.27-12.81a1.71,1.71,0,0,1,2.36-.51l0,0a1.7,1.7,0,0,1,.5,2.36L71.69,45.45A1.71,1.71,0,0,1,69.33,46Z" transform="translate(-7.87 -7.67)"/><polygon class="cls-7" points="50.51 57.53 48.41 56.18 50.81 47.83 57.12 51.9 50.51 57.53"/><rect class="cls-8" x="61.57" y="53.3" width="1.15" height="7.51" transform="translate(-27.36 70.66) rotate(-57.16)"/><path class="cls-9" d="M55.69,67h0a.73.73,0,0,1-.29-.89l.88-2.27,2,1.32-1.71,1.74A.73.73,0,0,1,55.69,67Z" transform="translate(-7.87 -7.67)"/><path class="cls-10" d="M52.4,39.93h12L51.23,26.76v12A1.17,1.17,0,0,0,52.4,39.93Z" transform="translate(-7.87 -7.67)"/><rect class="cls-11" x="24.69" y="36.52" width="22.98" height="1.36"/><rect class="cls-11" x="24.69" y="41.26" width="17.64" height="1.36"/><rect class="cls-11" x="24.69" y="52" width="17.64" height="1.36"/><rect class="cls-11" x="24.69" y="57.87" width="20.13" height="1.36"/></svg>