<svg id="Capa_1" data-name="Capa 1" xmlns="http://www.w3.org/2000/svg" viewBox="0 0 86.64 86.64"><defs><style>.cls-1{opacity:0.5;}.cls-2{fill:#9e4a23;}.cls-3{fill:#753617;}.cls-4{fill:#fcee3b;}.cls-5{fill:#fdf4a2;}</style></defs><circle class="cls-1" cx="43.32" cy="43.32" r="43.32"/><path class="cls-2" d="M59,61.45v-.87a1.93,1.93,0,0,0-1.93-1.93H30.89A1.94,1.94,0,0,0,29,60.58v.87Z" transform="translate(-6.68 -6.68)"/><path class="cls-3" d="M63.39,67V64.2a2.75,2.75,0,0,0-2.75-2.75H27.35a2.75,2.75,0,0,0-2.74,2.75V67Z" transform="translate(-6.68 -6.68)"/><path class="cls-2" d="M65.28,72.6H22.72c-3.37,0-3.44-5.61,0-5.61H65.28C68.7,67,68.65,72.6,65.28,72.6Z" transform="translate(-6.68 -6.68)"/><path class="cls-2" d="M62.38,42.49l-.67,1.44L87.12,55.72C89.19,51.26,71.63,44,63.81,43.15Z" transform="translate(-6.68 -6.68)"/><path class="cls-3" d="M61.71,43.93,61,45.37l1.43.66C67.8,51.1,85,60.27,87.12,55.72Z" transform="translate(-6.68 -6.68)"/><rect class="cls-3" x="57.16" y="39.82" width="3.18" height="5.43" transform="translate(-11.24 71.24) rotate(-65.11)"/><path class="cls-2" d="M63.6,42.26l-1.93,4.16c-.74,1.59-3.61.3-2.86-1.33l1.93-4.15C61.49,39.32,64.34,40.67,63.6,42.26Z" transform="translate(-6.68 -6.68)"/><rect class="cls-4" x="46.14" y="31.05" width="8.27" height="15.11" transform="translate(-12.59 61.28) rotate(-65.1)"/><rect class="cls-5" x="42.68" y="35.09" width="8.27" height="3.84" transform="translate(-13.14 57.22) rotate(-65.11)"/><path class="cls-3" d="M62,29.56,49.61,23.81a.72.72,0,0,0-1,.35L45.46,31l13.71,6.36,3.19-6.87A.72.72,0,0,0,62,29.56Z" transform="translate(-6.68 -6.68)"/><path class="cls-2" d="M59.81,38.48l-15.6-7.24a1.11,1.11,0,0,1,.94-2l15.6,7.24A1.11,1.11,0,0,1,59.81,38.48Z" transform="translate(-6.68 -6.68)"/><path class="cls-2" d="M61.61,34.61,46,27.37a1.11,1.11,0,0,1,.93-2l15.6,7.23A1.11,1.11,0,1,1,61.61,34.61Z" transform="translate(-6.68 -6.68)"/><path class="cls-3" d="M38.54,47.66l12.39,5.75a.73.73,0,0,0,1-.35l3.19-6.87L41.38,39.83,38.19,46.7A.72.72,0,0,0,38.54,47.66Z" transform="translate(-6.68 -6.68)"/><path class="cls-2" d="M40.73,38.74,56.33,46a1.11,1.11,0,0,1-.93,2L39.8,40.76A1.11,1.11,0,0,1,40.73,38.74Z" transform="translate(-6.68 -6.68)"/><path class="cls-2" d="M38.94,42.61l15.6,7.23a1.11,1.11,0,0,1-.94,2L38,44.63A1.11,1.11,0,0,1,38.94,42.61Z" transform="translate(-6.68 -6.68)"/></svg>