<svg id="Capa_1" data-name="Capa 1" xmlns="http://www.w3.org/2000/svg" viewBox="0 0 96.55 96.55"><defs><style>.cls-1,.cls-2{stroke:#fff;stroke-miterlimit:10;}.cls-1{stroke-width:0.25px;opacity:0.5;}.cls-2{fill:none;stroke-width:0.79px;}</style></defs><circle class="cls-1" cx="48.27" cy="48.27" r="48.15"/><path class="cls-2" d="M65.33,66.37h-2v-2.9A2.86,2.86,0,0,0,60.5,60.6H58.82v-.91a2,2,0,0,0-2-2H29.5a2,2,0,0,0-2,2v.91H25.81a2.87,2.87,0,0,0-2.87,2.87v2.9H21c-3.59,0-3.51,5.85,0,5.85H65.33C68.85,72.22,68.9,66.37,65.33,66.37Z" transform="translate(-1.73 -1.73)"/><path class="cls-2" d="M88.1,54.63C90.26,50,72,42.42,63.8,41.53l-.53-.25.31-.68c.77-1.66-2.19-3.06-3-1.38l-.31.66L57.54,38.6l1.11-2.4,1,.46a1.16,1.16,0,0,0,1-2.1l-1-.46.89-1.93,1,.46a1.16,1.16,0,1,0,1-2.1l-1-.46.79-1.7a.76.76,0,0,0-.37-1L49,21.37a.76.76,0,0,0-1,.37l-.79,1.7-1-.46a1.16,1.16,0,0,0-1,2.11l1,.45-.89,1.93-1-.46a1.16,1.16,0,0,0-1,2.11l1,.45-3.62,7.82-1-.46a1.16,1.16,0,0,0-1,2.11l1,.45-.89,1.93-1-.46a1.16,1.16,0,0,0-1,2.11l1,.45-.79,1.7a.77.77,0,0,0,.37,1l12.92,6a.75.75,0,0,0,1-.37l.79-1.7,1,.46a1.16,1.16,0,0,0,1-2.1l-1-.46.89-1.93,1,.46a1.16,1.16,0,0,0,1-2.1L55,44l1.12-2.41,2.75,1.28-.3.66c-.79,1.69,2.2,3,3,1.38l.3-.65.54.25C68,49.82,85.9,59.37,88.1,54.63" transform="translate(-1.73 -1.73)"/><path class="cls-2" d="M47.46,51" transform="translate(-1.73 -1.73)"/><line class="cls-2" x1="25.76" y1="58.87" x2="57.45" y2="58.87"/><line class="cls-2" x1="21.22" y1="64.65" x2="61.39" y2="64.65"/><line class="cls-2" x1="36.17" y1="41.8" x2="50.45" y2="48.43"/><line class="cls-2" x1="36.89" y1="39.55" x2="51.18" y2="46.18"/><line class="cls-2" x1="38.04" y1="37.78" x2="52.33" y2="44.41"/><line class="cls-2" x1="39" y1="35.64" x2="53.29" y2="42.27"/><line class="cls-2" x1="42.94" y1="27.97" x2="57.23" y2="34.6"/><line class="cls-2" x1="43.67" y1="25.72" x2="57.95" y2="32.35"/><line class="cls-2" x1="44.82" y1="23.96" x2="59.1" y2="30.59"/><line class="cls-2" x1="45.78" y1="21.82" x2="60.07" y2="28.45"/></svg>