<svg id="Capa_1" data-name="Capa 1" xmlns="http://www.w3.org/2000/svg" xmlns:xlink="http://www.w3.org/1999/xlink" viewBox="0 0 86.64 87.84"><defs><style>.cls-1{fill:none;}.cls-2{opacity:0.5;}.cls-3{clip-path:url(#clip-path);}.cls-4{fill:#ee904b;}.cls-5{fill:#27bdca;}.cls-6{fill:#0a282b;}.cls-7{fill:#0d525c;}.cls-8{fill:#fab67a;}.cls-9{fill:#3c3f98;}.cls-10{fill:#6a69af;}.cls-11{fill:#df3826;}.cls-12{fill:#6f2412;}.cls-13{fill:#2b286b;}.cls-14{fill:#f39c56;}</style><clipPath id="clip-path" transform="translate(-5.48 -7.67)"><circle class="cls-1" cx="48.8" cy="50.99" r="43.32"/></clipPath></defs><circle class="cls-2" cx="43.32" cy="43.32" r="43.32"/><g class="cls-3"><path class="cls-4" d="M27.15,34.33a1,1,0,0,1-2-.25l1-8.84a1,1,0,0,1,2,.25Z" transform="translate(-5.48 -7.67)"/><path class="cls-4" d="M24.92,33.64a1,1,0,0,1-2-.06l.21-7.26a1,1,0,0,1,2,.06Z" transform="translate(-5.48 -7.67)"/><path class="cls-4" d="M27.49,34a1,1,0,0,0,2,.41L31,27.28a1,1,0,0,0-2-.41Z" transform="translate(-5.48 -7.67)"/><path class="cls-4" d="M29.21,36.62a.85.85,0,1,0,1.64.45l2-7.56a.86.86,0,0,0-1.65-.45Z" transform="translate(-5.48 -7.67)"/><path class="cls-4" d="M29.34,42.53a32.54,32.54,0,0,0-.51,4.08l-6.35-.42c.09-2.75.18-3.56-.23-4.4-2.57-2-2.78-5.76-3.72-8.17-.46-1.19-.86-2.1-.86-2.1a1.28,1.28,0,0,1,2.1.33c1,1.44,1.61,5,2.43,4.28.42-.37.72-3.18.72-3.18a35.94,35.94,0,0,1,5.25.66,11.64,11.64,0,0,1,2.9,1.08S31.17,42.34,29.34,42.53Z" transform="translate(-5.48 -7.67)"/><rect class="cls-5" x="23.27" y="41.24" width="4.58" height="8.83" transform="translate(-28.03 58.52) rotate(-83.88)"/><polygon class="cls-6" points="25.07 38.51 22.91 87.84 12.82 87.84 15.09 37.44 25.07 38.51"/><path class="cls-7" d="M29.49,48.23a.6.6,0,1,1-1.19-.13.6.6,0,1,1,1.19.13Z" transform="translate(-5.48 -7.67)"/><path class="cls-7" d="M29.29,50.09A.6.6,0,1,1,28.1,50a.6.6,0,0,1,.66-.53A.6.6,0,0,1,29.29,50.09Z" transform="translate(-5.48 -7.67)"/><path class="cls-8" d="M36.75,38.87a1,1,0,0,0,2,0l-.08-8.9a1,1,0,0,0-2,0Z" transform="translate(-5.48 -7.67)"/><path class="cls-8" d="M39.05,38.42a1,1,0,0,0,2,.16l.57-7.24a1,1,0,0,0-2-.15Z" transform="translate(-5.48 -7.67)"/><path class="cls-8" d="M36.46,38.49a1,1,0,0,1-2,.2l-.73-7.22a1,1,0,0,1,2-.21Z" transform="translate(-5.48 -7.67)"/><path class="cls-8" d="M34.47,40.93a.86.86,0,0,1-1.69.27l-1.13-7.72a.85.85,0,0,1,1.68-.27Z" transform="translate(-5.48 -7.67)"/><path class="cls-8" d="M33.71,46.8a33.76,33.76,0,0,1,.07,4.11l6.36.25c.2-2.74.2-3.55.69-4.34,2.78-1.73,3.38-5.44,4.57-7.73.59-1.13,1.08-2,1.08-2a1.29,1.29,0,0,0-2.12.1c-1.16,1.33-2.14,4.82-2.88,4-.37-.42-.37-3.25-.37-3.25a37,37,0,0,0-5.29.1,11.17,11.17,0,0,0-3,.77S31.91,46.41,33.71,46.8Z" transform="translate(-5.48 -7.67)"/><rect class="cls-5" x="27.25" y="40.34" width="8.83" height="4.58"/><rect class="cls-9" x="26.65" y="42.63" width="10.03" height="45.21"/><path class="cls-10" d="M33,52.44a.6.6,0,0,0,.6.6c.33,0,.6.07.6-.27s-.27-.93-.6-.93A.6.6,0,0,0,33,52.44Z" transform="translate(-5.48 -7.67)"/><path class="cls-10" d="M33,54.32a.6.6,0,1,0,.6-.6A.6.6,0,0,0,33,54.32Z" transform="translate(-5.48 -7.67)"/><path class="cls-4" d="M50.48,42.71a1,1,0,0,1-2,0l.09-8.9a1,1,0,0,1,2,0Z" transform="translate(-5.48 -7.67)"/><path class="cls-4" d="M48.18,42.26a1,1,0,0,1-2,.15l-.57-7.23a1,1,0,0,1,2-.16Z" transform="translate(-5.48 -7.67)"/><path class="cls-4" d="M50.78,42.32a1,1,0,1,0,2,.2l.73-7.22a1,1,0,0,0-2-.2Z" transform="translate(-5.48 -7.67)"/><path class="cls-4" d="M52.77,44.76a.85.85,0,0,0,1.68.28l1.14-7.72A.86.86,0,0,0,53.9,37Z" transform="translate(-5.48 -7.67)"/><path class="cls-4" d="M53.53,50.63a32.41,32.41,0,0,0-.08,4.11L47.09,55c-.2-2.74-.2-3.55-.69-4.34-2.78-1.72-3.38-5.44-4.57-7.73-.58-1.13-1.08-2-1.08-2a1.3,1.3,0,0,1,2.13.11C44,42.35,45,45.84,45.75,45c.38-.42.37-3.24.37-3.24a36.45,36.45,0,0,1,5.29.09,11.65,11.65,0,0,1,3,.77S55.32,50.25,53.53,50.63Z" transform="translate(-5.48 -7.67)"/><rect class="cls-5" x="40.2" y="44.17" width="8.83" height="4.58"/><rect class="cls-11" x="39.75" y="45.97" width="10.03" height="41.87"/><path class="cls-12" d="M54.29,56.28a.6.6,0,0,1-.6.6c-.34,0-.6.06-.6-.27s.26-.93.6-.93A.6.6,0,0,1,54.29,56.28Z" transform="translate(-5.48 -7.67)"/><path class="cls-12" d="M54.29,58.15a.6.6,0,0,1-.6.6.6.6,0,0,1,0-1.2A.6.6,0,0,1,54.29,58.15Z" transform="translate(-5.48 -7.67)"/><path class="cls-8" d="M63,37.83a1,1,0,0,1-2,0l.08-8.89a1,1,0,0,1,2,0Z" transform="translate(-5.48 -7.67)"/><path class="cls-8" d="M60.75,37.38a1,1,0,0,1-2,.16l-.57-7.24a1,1,0,0,1,2-.16Z" transform="translate(-5.48 -7.67)"/><path class="cls-8" d="M63.34,37.44a1,1,0,1,0,2,.2l.73-7.22a1,1,0,0,0-2-.2Z" transform="translate(-5.48 -7.67)"/><path class="cls-8" d="M65.33,39.88a.86.86,0,0,0,1.69.28l1.13-7.72a.85.85,0,1,0-1.68-.27Z" transform="translate(-5.48 -7.67)"/><path class="cls-8" d="M66.09,45.76a33.59,33.59,0,0,0-.07,4.1l-6.36.26c-.2-2.75-.2-3.56-.69-4.35-2.78-1.72-3.38-5.43-4.57-7.72-.59-1.14-1.09-2-1.09-2a1.3,1.3,0,0,1,2.13.11c1.16,1.32,2.14,4.81,2.88,4,.37-.42.37-3.24.37-3.24A36.44,36.44,0,0,1,64,37a11.65,11.65,0,0,1,3,.77S67.89,45.37,66.09,45.76Z" transform="translate(-5.48 -7.67)"/><rect class="cls-5" x="52.77" y="39.29" width="8.83" height="4.58"/><rect class="cls-13" x="52.17" y="41.58" width="10.03" height="46.26"/><path class="cls-9" d="M66.85,51.4a.6.6,0,1,1-.6-.6A.6.6,0,0,1,66.85,51.4Z" transform="translate(-5.48 -7.67)"/><path class="cls-9" d="M66.85,53.27a.6.6,0,1,1-1.2,0,.6.6,0,0,1,1.2,0Z" transform="translate(-5.48 -7.67)"/><path class="cls-14" d="M72.61,39.67a1,1,0,0,0,2-.32l-1.35-8.8a1,1,0,0,0-2,.33Z" transform="translate(-5.48 -7.67)"/><path class="cls-14" d="M74.82,38.9a1,1,0,0,0,2-.13l-.46-7.25a1,1,0,0,0-2,.13Z" transform="translate(-5.48 -7.67)"/><path class="cls-14" d="M72.26,39.33a1,1,0,0,1-2,.49l-1.74-7a1,1,0,0,1,2-.49Z" transform="translate(-5.48 -7.67)"/><path class="cls-14" d="M70.64,42a.85.85,0,0,1-1.63.51l-2.22-7.48a.85.85,0,0,1,1.63-.51Z" transform="translate(-5.48 -7.67)"/><path class="cls-14" d="M70.72,48A32.06,32.06,0,0,1,71.37,52l6.34-.66c-.19-2.74-.31-3.54.07-4.39,2.5-2.1,2.57-5.87,3.42-8.3.42-1.21.79-2.14.79-2.14a1.29,1.29,0,0,0-2.09.41c-1,1.48-1.43,5.07-2.28,4.37-.43-.36-.83-3.16-.83-3.16a38.16,38.16,0,0,0-5.22.84,11.4,11.4,0,0,0-2.86,1.2S68.89,47.82,70.72,48Z" transform="translate(-5.48 -7.67)"/><rect class="cls-5" x="70.2" y="48.64" width="8.83" height="4.58" transform="translate(-11.95 3.43) rotate(-8.16)"/><polygon class="cls-11" points="76.54 87.84 66.28 87.84 64.17 43.97 74.1 42.54 76.54 87.84"/><path class="cls-12" d="M70.77,53.64a.59.59,0,0,0,.68.51A.6.6,0,1,0,71.28,53,.6.6,0,0,0,70.77,53.64Z" transform="translate(-5.48 -7.67)"/><path class="cls-12" d="M71,55.5a.6.6,0,1,0,.51-.68A.61.61,0,0,0,71,55.5Z" transform="translate(-5.48 -7.67)"/></g></svg>