<svg id="Capa_1" data-name="Capa 1" xmlns="http://www.w3.org/2000/svg" viewBox="0 0 85.42 85.42"><defs><style>.cls-1,.cls-2{stroke:#fff;}.cls-1{stroke-miterlimit:10;stroke-width:0.25px;isolation:isolate;opacity:0.5;}.cls-2{fill:none;stroke-linecap:round;stroke-linejoin:round;stroke-width:0.98px;}</style></defs><circle class="cls-1" cx="42.71" cy="42.71" r="42.59"/><path class="cls-2" d="M62.49,68.25H24.15a.84.84,0,0,1-.84-.85h0V19.24a.83.83,0,0,1,.82-.85H50.39l13,13v36a.85.85,0,0,1-.85.85Zm-11.94-35h11.8l-13-12.95v11.8a1.16,1.16,0,0,0,1.15,1.15ZM57,42.72V40H29.65v2.73Zm0,10V50H29.65V52.7Zm0,10.16V60.13H29.65v2.73Z" transform="translate(-0.61 -0.61)"/></svg>