<svg id="Capa_1" data-name="Capa 1" xmlns="http://www.w3.org/2000/svg" viewBox="0 0 100 100"><defs><style>.cls-1{fill:#fff;}.cls-2{fill:#a0a1a2;}</style></defs><path class="cls-1" d="M64.55,17.27a21.06,21.06,0,1,0,28.9,7.24A21.07,21.07,0,0,0,64.55,17.27Zm18.11,30.2a14.14,14.14,0,1,1,4.86-19.4A14.16,14.16,0,0,1,82.66,47.47Z"/><path class="cls-2" d="M75.4,57.17h0a21.83,21.83,0,1,1,11.2-3.11A22,22,0,0,1,75.4,57.17Zm0-42.13a20.3,20.3,0,0,0,0,40.6h0A20.31,20.31,0,0,0,92.79,24.91,20.42,20.42,0,0,0,75.36,15Zm0,35.21a14.91,14.91,0,0,1-7.68-27.7,14.85,14.85,0,0,1,7.65-2.12,14.91,14.91,0,1,1,0,29.82Zm0-28.29a13.38,13.38,0,1,0,11.49,6.5A13.34,13.34,0,0,0,75.37,22Z"/><path class="cls-1" d="M18.54,46A21.06,21.06,0,1,0,44.67,60.29,21.05,21.05,0,0,0,18.54,46Zm9.9,33.77A14.14,14.14,0,1,1,38,62.24,14.14,14.14,0,0,1,28.44,79.79Z"/><path class="cls-2" d="M24.45,88.05h0a21.85,21.85,0,1,1,6.15-.89A21.94,21.94,0,0,1,24.45,88.05Zm0-42.13a20.3,20.3,0,0,0,0,40.6h0a20.6,20.6,0,0,0,5.72-.82,20.3,20.3,0,0,0-5.7-39.78Zm0,35.22A14.92,14.92,0,1,1,38.77,62a14.93,14.93,0,0,1-10.11,18.5A15.1,15.1,0,0,1,24.45,81.14Zm0-28.3a13.39,13.39,0,0,0,0,26.77,13.56,13.56,0,0,0,3.78-.55,13.38,13.38,0,0,0-3.77-26.22Z"/><path class="cls-2" d="M47.56,81.78c-2.07,0-3.65-.87-4.22-2.31-.87-2.22,1-5,4.2-6.23a8.58,8.58,0,0,1,3.09-.61c2.08,0,3.65.86,4.22,2.31.88,2.22-1,5-4.19,6.22A8.61,8.61,0,0,1,47.56,81.78Zm3.07-7.62a7,7,0,0,0-2.53.51c-2.35.92-3.88,2.86-3.33,4.24s3,1.73,5.33.83S54,76.87,53.43,75.5C53.1,74.67,52,74.16,50.63,74.16Z"/><path class="cls-2" d="M54.49,78.79a4.07,4.07,0,0,1-3.85-2c-1-2.15.58-5,3.7-6.53a8.26,8.26,0,0,1,3.57-.87,4.08,4.08,0,0,1,3.86,2c1,2.15-.59,5-3.71,6.53A8.22,8.22,0,0,1,54.49,78.79Zm3.42-7.87a6.71,6.71,0,0,0-2.9.72c-2.27,1.1-3.64,3.15-3,4.48s3.17,1.49,5.37.42,3.64-3.15,3-4.48A2.62,2.62,0,0,0,57.91,70.92Z"/><path class="cls-2" d="M60,74.06a3.37,3.37,0,0,1-2.34-.85c-1.75-1.62-1.28-4.89,1.07-7.44s5.63-3.22,7.32-1.65S67.34,69,65,71.55A7.16,7.16,0,0,1,60,74.06Zm3.7-9.27a5.74,5.74,0,0,0-3.85,2c-1.71,1.86-2.24,4.27-1.15,5.27s3.5.23,5.16-1.57,2.24-4.27,1.15-5.27A1.84,1.84,0,0,0,63.71,64.79Z"/><path class="cls-2" d="M64.77,67.53a3.19,3.19,0,0,1-1.62-.43c-2.06-1.2-2.31-4.49-.56-7.49,1.29-2.2,3.32-3.62,5.18-3.62a3.22,3.22,0,0,1,1.62.43c2.06,1.21,2.3,4.5.55,7.49C68.66,66.11,66.63,67.53,64.77,67.53Zm3-10c-1.31,0-2.86,1.15-3.86,2.86-1.27,2.18-1.27,4.65,0,5.4s3.46-.52,4.7-2.65,1.27-4.64,0-5.39A1.67,1.67,0,0,0,67.77,57.52Z"/><path class="cls-1" d="M47.25,68.22l-8.49-.82s-.17,0-4,6.07c-4.06,5.89-4,6.07-4,6.07L34.79,87A20,20,0,0,0,47.25,68.22Z"/><path class="cls-2" d="M34.79,87.8a.77.77,0,0,1-.68-.4l-4.06-7.5a.68.68,0,0,1-.07-.2c-.09-.39-.11-.5,4.13-6.67,4-6.28,4.12-6.3,4.5-6.38a.87.87,0,0,1,.23,0l8.49.81a.77.77,0,0,1,.69.77A20.64,20.64,0,0,1,35.09,87.74.8.8,0,0,1,34.79,87.8Zm-3.2-8.26,3.53,6.51A19.06,19.06,0,0,0,46.47,68.91l-7.36-.71c-.36.5-1.3,1.89-3.72,5.68S31.91,79,31.59,79.54Z"/><path class="cls-1" d="M79.39,58.13,78,49.71s-.08-.16-6.89-2.36C64.43,44.91,64.27,45,64.27,45L58,50.81A20,20,0,0,0,79.39,58.13Z"/><path class="cls-2" d="M73.94,59.6h0a20.72,20.72,0,0,1-16.52-8.32.77.77,0,0,1,.09-1l6.24-5.82a.57.57,0,0,1,.18-.12.77.77,0,0,1,.34-.08c.17,0,.51,0,7.14,2.4,7.08,2.29,7.14,2.39,7.31,2.73a.9.9,0,0,1,.08.23L80.15,58a.78.78,0,0,1-.57.87A23.39,23.39,0,0,1,73.94,59.6ZM59.07,50.89a19.11,19.11,0,0,0,14.87,7.18h0a21.17,21.17,0,0,0,4.58-.52l-1.17-7.3c-.57-.22-2.16-.79-6.43-2.17-4.25-1.54-5.85-2.06-6.44-2.24Z"/></svg>