<svg id="Capa_1" data-name="Capa 1" xmlns="http://www.w3.org/2000/svg" viewBox="0 0 100 100"><defs><style>.cls-1{fill:#fff;}.cls-2{fill:#9b9c9c;}</style></defs><rect class="cls-1" x="11.05" y="82.77" width="76.06" height="9.96"/><path class="cls-2" d="M87.11,93.54H11.05a.82.82,0,0,1-.81-.82v-10a.81.81,0,0,1,.81-.81H87.11a.81.81,0,0,1,.81.81v10A.82.82,0,0,1,87.11,93.54ZM11.86,91.91H86.29V83.58H11.86Z"/><rect class="cls-1" x="77.06" y="82.77" width="3.21" height="9.96"/><path class="cls-2" d="M80.27,93.54H77.06a.82.82,0,0,1-.81-.82v-10a.81.81,0,0,1,.81-.81h3.21a.81.81,0,0,1,.81.81v10A.82.82,0,0,1,80.27,93.54Zm-2.4-1.63h1.59V83.58H77.87Z"/><rect class="cls-1" x="71.17" y="82.77" width="3.21" height="9.96"/><path class="cls-2" d="M74.39,93.54H71.17a.82.82,0,0,1-.81-.82v-10a.81.81,0,0,1,.81-.81h3.22a.81.81,0,0,1,.81.81v10A.82.82,0,0,1,74.39,93.54ZM72,91.91h1.59V83.58H72Z"/><path class="cls-1" d="M22.07,87.75a3.05,3.05,0,1,1-3-3.23A3.13,3.13,0,0,1,22.07,87.75Z"/><path class="cls-2" d="M19,91.78a4,4,0,0,1,0-8.07,4,4,0,0,1,0,8.07Zm0-6.45a2.42,2.42,0,0,0,0,4.83,2.42,2.42,0,0,0,0-4.83Z"/><rect class="cls-1" x="11.05" y="59.84" width="76.06" height="14.12"/><path class="cls-2" d="M87.11,74.77H11.05a.81.81,0,0,1-.81-.81V59.84a.82.82,0,0,1,.81-.82H87.11a.82.82,0,0,1,.81.82V74A.81.81,0,0,1,87.11,74.77ZM11.86,73.14H86.29V60.65H11.86Z"/><rect class="cls-1" x="22.07" y="59.84" width="54.98" height="14.12"/><path class="cls-2" d="M77.06,74.77h-55a.81.81,0,0,1-.81-.81V59.84a.82.82,0,0,1,.81-.82h55a.82.82,0,0,1,.81.82V74A.81.81,0,0,1,77.06,74.77ZM22.88,73.14H76.25V60.65H22.88Z"/><rect class="cls-1" x="72.78" y="59.84" width="4.28" height="14.12"/><path class="cls-2" d="M77.06,74.77H72.78A.81.81,0,0,1,72,74V59.84a.82.82,0,0,1,.81-.82h4.28a.82.82,0,0,1,.81.82V74A.81.81,0,0,1,77.06,74.77Zm-3.47-1.63h2.66V60.65H73.59Z"/><rect class="cls-1" x="22.07" y="59.84" width="4.28" height="14.12"/><path class="cls-2" d="M26.35,74.77H22.07a.81.81,0,0,1-.81-.81V59.84a.82.82,0,0,1,.81-.82h4.28a.82.82,0,0,1,.81.82V74A.81.81,0,0,1,26.35,74.77Zm-3.47-1.63h2.66V60.65H22.88Z"/><rect class="cls-1" x="23.59" y="31.26" width="45.92" height="10.46" transform="translate(-6.74 62.14) rotate(-63.8)"/><path class="cls-2" d="M41.1,60.21a.85.85,0,0,1-.35-.08l-9.39-4.62A.77.77,0,0,1,31,55a.79.79,0,0,1,0-.62l20.27-41.2a.82.82,0,0,1,1.09-.37l9.39,4.62a.8.8,0,0,1,.36,1.08L41.83,59.76A.82.82,0,0,1,41.1,60.21Zm-8.3-5.8,7.93,3.9L60.29,18.57l-7.93-3.91Z"/><rect class="cls-1" x="30.08" y="30.99" width="33.2" height="10.46" transform="translate(-6.43 62.11) rotate(-63.8)"/><path class="cls-2" d="M44,54.24a.94.94,0,0,1-.36-.08L34.3,49.54a.81.81,0,0,1-.37-1.09L48.58,18.66a.83.83,0,0,1,.47-.41.84.84,0,0,1,.62,0l9.39,4.62a.83.83,0,0,1,.41.47.84.84,0,0,1,0,.62L44.77,53.79A.82.82,0,0,1,44,54.24Zm-8.3-5.8,7.93,3.9L57.61,24l-7.93-3.9Z"/><rect class="cls-1" x="52.14" y="17.26" width="2.58" height="10.46" transform="translate(9.65 60.48) rotate(-63.77)"/><path class="cls-2" d="M57.56,26.77a.86.86,0,0,1-.36-.08l-9.39-4.62A.82.82,0,0,1,47.44,21l1.14-2.32a.83.83,0,0,1,.47-.41.84.84,0,0,1,.62,0l9.39,4.62a.83.83,0,0,1,.41.47.84.84,0,0,1,0,.62l-1.15,2.32a.81.81,0,0,1-.46.41A.78.78,0,0,1,57.56,26.77ZM49.26,21l7.93,3.9.42-.86-7.93-3.9Z"/><rect class="cls-1" x="38.63" y="44.73" width="2.59" height="10.46" transform="translate(-22.53 63.71) rotate(-63.79)"/><path class="cls-2" d="M44,54.24a.94.94,0,0,1-.36-.08L34.3,49.54a.82.82,0,0,1-.37-1.09l1.14-2.32a.81.81,0,0,1,1.08-.37l9.39,4.62a.77.77,0,0,1,.41.47.79.79,0,0,1,0,.62l-1.14,2.32A.82.82,0,0,1,44,54.24Zm-8.3-5.8,7.93,3.9.43-.86-7.93-3.9Z"/><rect class="cls-1" x="3.46" y="72.85" width="93.04" height="10.4"/><path class="cls-2" d="M96.5,84.06h-93a.81.81,0,0,1-.81-.81V72.85A.81.81,0,0,1,3.46,72h93a.81.81,0,0,1,.81.81v10.4A.81.81,0,0,1,96.5,84.06ZM4.27,82.44H95.69V73.66H4.27Z"/><rect class="cls-1" x="7.2" y="75.85" width="3.77" height="4.41"/><path class="cls-2" d="M11,81.07H7.2a.82.82,0,0,1-.82-.82v-4.4A.82.82,0,0,1,7.2,75H11a.82.82,0,0,1,.81.82v4.4A.82.82,0,0,1,11,81.07ZM8,79.44h2.14V76.66H8Z"/><rect class="cls-1" x="82.16" y="75.85" width="3.77" height="4.41"/><path class="cls-2" d="M85.93,81.07H82.16a.82.82,0,0,1-.81-.82v-4.4a.82.82,0,0,1,.81-.82h3.77a.82.82,0,0,1,.81.82v4.4A.82.82,0,0,1,85.93,81.07Zm-3-1.63h2.15V76.66H83Z"/><rect class="cls-1" x="89.89" y="75.85" width="3.77" height="4.41"/><path class="cls-2" d="M93.66,81.07H89.89a.82.82,0,0,1-.82-.82v-4.4a.82.82,0,0,1,.82-.82h3.77a.82.82,0,0,1,.81.82v4.4A.82.82,0,0,1,93.66,81.07Zm-3-1.63h2.14V76.66H90.7Z"/><rect class="cls-1" x="20.7" y="76.19" width="53.38" height="3.63"/><path class="cls-2" d="M74.07,80.62H20.7a.82.82,0,0,1-.82-.81V76.19a.82.82,0,0,1,.82-.81H74.07a.82.82,0,0,1,.82.81v3.62A.82.82,0,0,1,74.07,80.62ZM21.51,79H73.26V77H21.51Z"/><rect class="cls-1" x="62.83" y="4.37" width="9.96" height="54.83"/><path class="cls-2" d="M72.79,60h-10A.81.81,0,0,1,62,59.2V4.37a.81.81,0,0,1,.81-.81h10a.81.81,0,0,1,.81.81V59.2A.81.81,0,0,1,72.79,60Zm-9.15-1.62H72V5.18H63.64Z"/><rect class="cls-1" x="62.83" y="12.13" width="9.96" height="2.9"/><path class="cls-2" d="M72.79,15.84h-10A.82.82,0,0,1,62,15V12.13a.81.81,0,0,1,.81-.81h10a.81.81,0,0,1,.81.81V15A.82.82,0,0,1,72.79,15.84Zm-9.15-1.63H72V12.94H63.64Z"/><rect class="cls-1" x="62.83" y="17.26" width="9.96" height="2.89"/><path class="cls-2" d="M72.79,21h-10a.82.82,0,0,1-.81-.82V17.26a.81.81,0,0,1,.81-.81h10a.81.81,0,0,1,.81.81v2.89A.82.82,0,0,1,72.79,21Zm-9.15-1.63H72V18.07H63.64Z"/><path class="cls-1" d="M67.81,48a3,3,0,1,1-3.23,3A3.13,3.13,0,0,1,67.81,48Z"/><path class="cls-2" d="M67.81,54.9a3.86,3.86,0,1,1,4-3.86A4,4,0,0,1,67.81,54.9Zm0-6.09A2.24,2.24,0,1,0,70.22,51,2.33,2.33,0,0,0,67.81,48.81Z"/></svg>