<svg xmlns="http://www.w3.org/2000/svg" viewBox="0 0 87.23 93.65"><defs><style>.cls-1{fill:#fff;}.cls-2{fill:#1a1818;}</style></defs><g id="OBJECTS"><path d="M84.52,43.19A32.35,32.35,0,1,1,52.17,10.84,32.34,32.34,0,0,1,84.52,43.19" transform="translate(-8.94 -10.84)"/><path class="cls-1" d="M48.74,39.61,48,40.94c-.24.45-.48.9-.73,1.34-.37.64-.74,1.29-1.13,1.92s-.81,1.24-1.25,1.83a19.36,19.36,0,0,1-1.41,1.62,4.56,4.56,0,0,1-1.74,1.19,1.53,1.53,0,0,1-1.39-.09,2,2,0,0,1-.88-1.12,5.4,5.4,0,0,1-.28-2.09,11.82,11.82,0,0,1,.28-2.09c0-.21.08-.41.13-.6s.1-.38.16-.57c-.38.63-.78,1.24-1.18,1.84s-.83,1.19-1.29,1.77-.84,1-1.31,1.54a5.37,5.37,0,0,1-1.58,1.24,1.61,1.61,0,0,1-1.36.11,1.53,1.53,0,0,1-.85-1.09,4.22,4.22,0,0,1-.08-2,19.11,19.11,0,0,1,.48-2c.18-.59.37-1.18.58-1.75s.44-1.14.69-1.69L35,37.55l.31-.8a5.29,5.29,0,0,0,.29-1,1.56,1.56,0,0,0-.05-.85c-.08-.23-.33-.34-.73-.34a1.94,1.94,0,0,0-.93.23,4.13,4.13,0,0,0-.81.55,5.4,5.4,0,0,0-.69.74c-.21.26-.4.52-.57.77a22.58,22.58,0,0,0-2.1,3.55c0,.1-.07.2-.11.32a.38.38,0,0,1-.2.23.32.32,0,0,1-.3,0,.3.3,0,0,1-.19-.21.38.38,0,0,1,0-.33,2.25,2.25,0,0,0,.16-.3l.49-1c.32-.61.68-1.21,1.07-1.82A11.91,11.91,0,0,1,32,35.63c.23-.25.47-.5.74-.75a5.88,5.88,0,0,1,.85-.66,3.66,3.66,0,0,1,.94-.44,2.19,2.19,0,0,1,1.05-.07,1.51,1.51,0,0,1,.9.41,2.17,2.17,0,0,1,.5.79,3.5,3.5,0,0,1,.22,1,6.32,6.32,0,0,1,0,1A10.38,10.38,0,0,1,36.88,39c-.18.71-.38,1.41-.62,2.12s-.5,1.4-.79,2.08-.56,1.35-.83,2c-.15.38-.31.76-.47,1.13a11.83,11.83,0,0,0-.42,1.13.67.67,0,0,0,0,.4q0,.12.39.06a2.05,2.05,0,0,0,1-.4,5.47,5.47,0,0,0,.88-.79,8.62,8.62,0,0,0,.74-.95l.63-.9c.5-.69,1-1.39,1.41-2.12s.86-1.45,1.26-2.18L40.92,39c.26-.67.54-1.33.83-2a14.25,14.25,0,0,1,1-1.89c.15-.27.31-.52.47-.77a6.33,6.33,0,0,1,.56-.72A.72.72,0,0,1,45,34a2.23,2.23,0,0,1-.1.79c-.09.28-.16.53-.22.76-.19.71-.42,1.43-.69,2.18s-.45,1.24-.67,1.88-.44,1.27-.65,1.9L42.15,43c-.17.5-.34,1-.49,1.53s-.32,1-.5,1.55A3.82,3.82,0,0,0,41,47.63c0,.29.16.44.37.45a1.5,1.5,0,0,0,.7-.16,4.46,4.46,0,0,0,.76-.43,3.89,3.89,0,0,0,.49-.37,13,13,0,0,0,1.37-1.65c.42-.6.82-1.21,1.21-1.82.53-.86,1-1.74,1.5-2.65s.92-1.82,1.36-2.74l.68-1.46c.21-.48.43-1,.64-1.46" transform="translate(-8.94 -10.84)"/><path class="cls-1" d="M59.56,33.68a7.2,7.2,0,0,1-.13,1.6c-.11.53-.22,1-.34,1.56-.09.32-.17.64-.25,1s-.15.65-.22,1c.33-.5.67-1,1-1.47a16.22,16.22,0,0,1,1.11-1.4A10,10,0,0,1,62,34.69a5.85,5.85,0,0,1,1.61-1,2.79,2.79,0,0,1,1.62-.17,2.09,2.09,0,0,1,1.33,1.23,5.36,5.36,0,0,1,.54,2,8.75,8.75,0,0,1-.1,2.16,12.32,12.32,0,0,1-.58,2.14c-.27.69-.55,1.33-.84,1.9s-.64,1.14-1,1.73a9.51,9.51,0,0,1-1.32,1.63,7.42,7.42,0,0,1-1.62,1.24,5.09,5.09,0,0,1-1.93.62,2.9,2.9,0,0,1-2-.44,2.61,2.61,0,0,1-1.13-1.63.63.63,0,0,1,0-.21c-.35,1.08-.72,2.14-1.09,3.19s-.76,2.12-1.17,3.19l-.87,2.19c-.3.73-.6,1.45-.93,2.16s-.62,1.31-.95,2a10.86,10.86,0,0,1-1.21,1.82l-.63.73a5.66,5.66,0,0,1-.75.72,4.64,4.64,0,0,1-.86.55,1.88,1.88,0,0,1-.91.2,1,1,0,0,1-.71-.27,1.15,1.15,0,0,1-.27-.59,2.31,2.31,0,0,1,0-.74,5.39,5.39,0,0,1,.16-.71,14.11,14.11,0,0,1,.78-2.06c.31-.65.63-1.3,1-2s.73-1.4,1.11-2.06.76-1.35,1.16-2c.55-1,1.11-1.93,1.68-2.87s1.14-1.9,1.7-2.85c.23-.65.44-1.31.65-2l.61-2L55.53,41c.16-.52.33-1,.51-1.54.24-.71.5-1.44.78-2.17a16.61,16.61,0,0,1,1-2.1,7.43,7.43,0,0,1,.62-1l.52-.61a.63.63,0,0,1,.4-.15c.16,0,.24.09.25.3M50.88,52l-1.12,2.05c-.37.68-.73,1.38-1.07,2.09s-.63,1.35-.93,2a15,15,0,0,0-.74,2.1c0,.08-.05.19-.08.34a2.43,2.43,0,0,0-.08.47,1.54,1.54,0,0,0,0,.43.27.27,0,0,0,.21.23c.13,0,.26,0,.39-.17a4,4,0,0,0,.29-.37,6.81,6.81,0,0,0,1-1.75c.23-.63.48-1.24.76-1.84q1.13-2.38,2.06-4.8c.63-1.62,1.22-3.25,1.78-4.91-.85,1.38-1.67,2.74-2.44,4.1m7.06-4.7a1.64,1.64,0,0,0,1.55,0,3.69,3.69,0,0,0,1.25-1,15.43,15.43,0,0,0,1.18-1.76c.36-.63.68-1.25,1-1.86s.63-1.35.92-2,.56-1.38.81-2.1c.11-.31.21-.64.29-1s.17-.64.26-1,.17-.67.24-1a1.66,1.66,0,0,0-.13-1,.88.88,0,0,0-.62-.5,1.64,1.64,0,0,0-.81.09,4.26,4.26,0,0,0-.83.41c-.26.18-.48.33-.64.46a11.11,11.11,0,0,0-1.48,1.58c-.45.58-.88,1.16-1.29,1.76-.19.29-.38.58-.56.87s-.37.59-.54.91c-.08.15-.15.3-.22.44a3.74,3.74,0,0,1-.22.45l-.75,2.46L57,44.71a3.68,3.68,0,0,0,.13,1.5,1.72,1.72,0,0,0,.86,1.1" transform="translate(-8.94 -10.84)"/><path class="cls-1" d="M67,38.79c.33-.5.66-1,1-1.47a14.61,14.61,0,0,1,1.12-1.4,9.41,9.41,0,0,1,1.27-1.23,5.57,5.57,0,0,1,1.61-1,2.75,2.75,0,0,1,1.61-.17,2.07,2.07,0,0,1,1.33,1.23,5.19,5.19,0,0,1,.55,2,8.76,8.76,0,0,1-.11,2.16,10.77,10.77,0,0,1-.58,2.14,16.9,16.9,0,0,1-.84,1.9,19,19,0,0,1-1,1.73,9.45,9.45,0,0,1-1.31,1.63A7.42,7.42,0,0,1,70,47.58a5.21,5.21,0,0,1-1.93.62,2.94,2.94,0,0,1-2-.44A2.59,2.59,0,0,1,65,46.13a.46.46,0,0,1,0-.21c-.36,1.08-.72,2.14-1.09,3.19s-.76,2.12-1.18,3.19q-.42,1.1-.87,2.19c-.29.73-.6,1.45-.92,2.16s-.62,1.31-1,2a10.86,10.86,0,0,1-1.21,1.82l-.62.73a5.74,5.74,0,0,1-.76.72,4.26,4.26,0,0,1-.85.55,1.92,1.92,0,0,1-.92.2,1,1,0,0,1-.7-.27,1,1,0,0,1-.27-.59,2.29,2.29,0,0,1,0-.74,5.31,5.31,0,0,1,.17-.71,14.11,14.11,0,0,1,.78-2.06c.31-.65.63-1.3,1-2s.73-1.4,1.1-2.06l1.17-2c.54-1,1.1-1.93,1.67-2.87s1.15-1.9,1.71-2.85c.22-.65.44-1.31.64-2ZM59.23,52,58.1,54.06c-.36.68-.72,1.38-1.06,2.09s-.63,1.35-.93,2a15,15,0,0,0-.74,2.1l-.09.34c0,.15-.06.31-.08.47a1.51,1.51,0,0,0,0,.43.26.26,0,0,0,.2.23.37.37,0,0,0,.4-.17,4,4,0,0,0,.29-.37,6.49,6.49,0,0,0,1-1.75c.23-.63.49-1.24.77-1.84.75-1.59,1.43-3.19,2.06-4.8s1.22-3.25,1.78-4.91c-.86,1.38-1.67,2.74-2.44,4.1m7.06-4.7a1.62,1.62,0,0,0,1.54,0,3.83,3.83,0,0,0,1.26-1,15.43,15.43,0,0,0,1.18-1.76c.35-.63.68-1.25,1-1.86s.62-1.35.92-2,.56-1.38.8-2.1c.12-.31.21-.64.3-1s.17-.64.26-1,.17-.67.24-1a1.67,1.67,0,0,0-.14-1,.87.87,0,0,0-.62-.5,1.66,1.66,0,0,0-.81.09,4.19,4.19,0,0,0-.82.41c-.27.18-.48.33-.64.46a11.11,11.11,0,0,0-1.48,1.58c-.45.58-.88,1.16-1.3,1.76-.18.29-.37.58-.56.87s-.36.59-.53.91c-.08.15-.16.3-.22.44a3.81,3.81,0,0,1-.23.45l-.75,2.46-.37,1.19a3.67,3.67,0,0,0,.12,1.5,1.77,1.77,0,0,0,.87,1.1" transform="translate(-8.94 -10.84)"/><path class="cls-1" d="M55.82,42.1c-.33.61-.66,1.22-1,1.84a19.15,19.15,0,0,1-1.16,1.81,15.37,15.37,0,0,1-1.35,1.63,8.62,8.62,0,0,1-1.6,1.34,4.14,4.14,0,0,1-.72.38,2,2,0,0,1-.73.17,1.39,1.39,0,0,1-.69-.15,1.84,1.84,0,0,1-.61-.58,3.65,3.65,0,0,1-.66-1.85,13.34,13.34,0,0,1,0-2,19.41,19.41,0,0,1,.86-4.42A38.13,38.13,0,0,1,49.72,36l.28-.7a5.06,5.06,0,0,1,.47-.93,1.87,1.87,0,0,1,.62-.63c.23-.14.47-.06.72.23a.77.77,0,0,1,.17.38,1.37,1.37,0,0,1,0,.45,3.63,3.63,0,0,1-.1.45c0,.16-.06.29-.08.41-.1.36-.18.72-.26,1.07s-.16.71-.26,1.08l-1,4.24-.72,3c0,.27-.11.53-.17.79s-.1.52-.14.78-.08.48-.12.75a1.32,1.32,0,0,0,.09.72.48.48,0,0,0,.29.3.92.92,0,0,0,.44,0,1.59,1.59,0,0,0,.47-.14l.38-.18a8.06,8.06,0,0,0,1.07-1q.51-.57.93-1.14t.93-1.35c.3-.46.58-.93.85-1.4l.77-1.35a.3.3,0,1,1,.52.29M53.76,26.28a1.1,1.1,0,0,1-.92-.39,1.33,1.33,0,0,1-.32-.86,1.38,1.38,0,0,1,.32-.87,1.25,1.25,0,0,1,1.83,0A1.38,1.38,0,0,1,55,25a1.33,1.33,0,0,1-.32.86,1.1,1.1,0,0,1-.91.39" transform="translate(-8.94 -10.84)"/><path class="cls-2" d="M11.9,94h1.7l2.77,10.29h-1.3l-.74-2.83H11l-.77,2.83H8.94Zm-.63,6.43h2.8l-1.33-5h0Z" transform="translate(-8.94 -10.84)"/><path class="cls-2" d="M20.91,94h3.15a4,4,0,0,1,1,.13,2.12,2.12,0,0,1,.84.44,2.24,2.24,0,0,1,.59.81,3.12,3.12,0,0,1,.23,1.26,2.37,2.37,0,0,1-.11.69,2,2,0,0,1-.29.63,2.07,2.07,0,0,1-.47.51,1.81,1.81,0,0,1-.62.31v0a2.2,2.2,0,0,1,1.38.91,2.94,2.94,0,0,1,.44,1.63,2.71,2.71,0,0,1-.86,2.25,3.86,3.86,0,0,1-2.47.69H20.91Zm1.29,4.44h1.46c.13,0,.3,0,.49,0a1.65,1.65,0,0,0,.58-.22,1.4,1.4,0,0,0,.47-.52,1.9,1.9,0,0,0,.2-.94A1.78,1.78,0,0,0,25,95.47,1.82,1.82,0,0,0,23.63,95H22.2Zm0,4.81h1.73a2,2,0,0,0,.85-.16,1.37,1.37,0,0,0,.55-.42,1.71,1.71,0,0,0,.31-.6,2.84,2.84,0,0,0,.09-.72,2.16,2.16,0,0,0-.16-.9,1.6,1.6,0,0,0-.43-.61,1.65,1.65,0,0,0-.64-.34,2.9,2.9,0,0,0-.79-.11H22.2Z" transform="translate(-8.94 -10.84)"/><path class="cls-2" d="M35.37,93.8a2.86,2.86,0,0,1,1.71.47,3.13,3.13,0,0,1,1,1.23,5.38,5.38,0,0,1,.47,1.72,15.47,15.47,0,0,1,.12,1.92,15.27,15.27,0,0,1-.12,1.93,5.38,5.38,0,0,1-.47,1.72,3.13,3.13,0,0,1-1,1.23,2.86,2.86,0,0,1-1.71.47,2.9,2.9,0,0,1-1.72-.47,3.13,3.13,0,0,1-1-1.23,5.65,5.65,0,0,1-.47-1.72,15.27,15.27,0,0,1-.12-1.93,15.47,15.47,0,0,1,.12-1.92,5.65,5.65,0,0,1,.47-1.72,3.13,3.13,0,0,1,1-1.23A2.9,2.9,0,0,1,35.37,93.8Zm0,1a1.56,1.56,0,0,0-1.07.34,2.13,2.13,0,0,0-.61.92,5.19,5.19,0,0,0-.27,1.37c-.05.52-.07,1.08-.07,1.67s0,1.16.07,1.68a5.19,5.19,0,0,0,.27,1.37,2.13,2.13,0,0,0,.61.92,1.84,1.84,0,0,0,2.13,0,2,2,0,0,0,.61-.92,5.61,5.61,0,0,0,.28-1.37q.06-.78.06-1.68c0-.59,0-1.15-.06-1.67A5.61,5.61,0,0,0,37,96.1a2,2,0,0,0-.61-.92A1.55,1.55,0,0,0,35.37,94.84Z" transform="translate(-8.94 -10.84)"/><path class="cls-2" d="M48.93,96.85a4.94,4.94,0,0,0-.12-.77,2,2,0,0,0-.29-.64A1.59,1.59,0,0,0,48,95a1.8,1.8,0,0,0-.81-.16,1.54,1.54,0,0,0-1.06.34,2,2,0,0,0-.61.92,5.18,5.18,0,0,0-.28,1.37c0,.52-.07,1.08-.07,1.67s0,1.16.07,1.68a4.81,4.81,0,0,0,.28,1.37,2.11,2.11,0,0,0,.6.92,1.54,1.54,0,0,0,1.06.34,1.49,1.49,0,0,0,1-.35,2.35,2.35,0,0,0,.57-.87A4.92,4.92,0,0,0,49,101.1c0-.4,0-.77,0-1.12h-2v-1h3.18v5.35h-.95v-1.4h0a2.24,2.24,0,0,1-.78,1.13,2.21,2.21,0,0,1-1.44.47A2.73,2.73,0,0,1,45.4,104a2.88,2.88,0,0,1-.95-1.19,5.64,5.64,0,0,1-.46-1.7,18.61,18.61,0,0,1-.11-2A17.65,17.65,0,0,1,44,97.22a5.65,5.65,0,0,1,.48-1.72,3.05,3.05,0,0,1,1-1.23,2.86,2.86,0,0,1,1.71-.47,3.54,3.54,0,0,1,1.25.19,2.59,2.59,0,0,1,.85.48,2.3,2.3,0,0,1,.52.66,3.23,3.23,0,0,1,.28.69,3.35,3.35,0,0,1,.12.62c0,.19,0,.33,0,.41Z" transform="translate(-8.94 -10.84)"/><path class="cls-2" d="M57.59,94h1.7l2.76,10.29H60.76L60,101.46H56.69l-.77,2.83h-1.3ZM57,100.43h2.8l-1.32-5h0Z" transform="translate(-8.94 -10.84)"/><path class="cls-2" d="M66.72,94h2.75a3.84,3.84,0,0,1,1.91.41,2.63,2.63,0,0,1,1.09,1.1A4.65,4.65,0,0,1,73,97.14a18,18,0,0,1,.11,2,11.93,11.93,0,0,1-.14,1.91,5.18,5.18,0,0,1-.53,1.64,3.22,3.22,0,0,1-1.07,1.16,3.15,3.15,0,0,1-1.73.44H66.72Zm1.3,9.25h1.32a2.1,2.1,0,0,0,1.31-.38,2.52,2.52,0,0,0,.73-1,4.57,4.57,0,0,0,.33-1.32c0-.49.07-1,.07-1.42s0-1-.06-1.48a4.41,4.41,0,0,0-.3-1.32,2.14,2.14,0,0,0-.72-1A2.2,2.2,0,0,0,69.34,95H68Z" transform="translate(-8.94 -10.84)"/><path class="cls-2" d="M81.59,93.8a2.86,2.86,0,0,1,1.71.47,3.13,3.13,0,0,1,1,1.23,5.38,5.38,0,0,1,.47,1.72,15.47,15.47,0,0,1,.12,1.92,15.27,15.27,0,0,1-.12,1.93,5.38,5.38,0,0,1-.47,1.72,3.13,3.13,0,0,1-1,1.23,3.36,3.36,0,0,1-3.43,0,3.13,3.13,0,0,1-1-1.23,5.38,5.38,0,0,1-.47-1.72,15.27,15.27,0,0,1-.12-1.93,15.47,15.47,0,0,1,.12-1.92,5.38,5.38,0,0,1,.47-1.72,3.13,3.13,0,0,1,1-1.23A2.87,2.87,0,0,1,81.59,93.8Zm0,1a1.56,1.56,0,0,0-1.07.34,2.13,2.13,0,0,0-.61.92,5.61,5.61,0,0,0-.28,1.37c0,.52-.06,1.08-.06,1.67s0,1.16.06,1.68a5.61,5.61,0,0,0,.28,1.37,2.13,2.13,0,0,0,.61.92,1.84,1.84,0,0,0,2.13,0,2,2,0,0,0,.61-.92,5.61,5.61,0,0,0,.28-1.37q.06-.78.06-1.68c0-.59,0-1.15-.06-1.67a5.61,5.61,0,0,0-.28-1.37,2,2,0,0,0-.61-.92A1.55,1.55,0,0,0,81.59,94.84Z" transform="translate(-8.94 -10.84)"/><path class="cls-2" d="M94.58,96.67a3.36,3.36,0,0,0-.08-.74,1.35,1.35,0,0,0-.27-.58,1.3,1.3,0,0,0-.5-.38,1.83,1.83,0,0,0-.75-.13,1.74,1.74,0,0,0-1.26.42,1.68,1.68,0,0,0-.44,1.25,1.58,1.58,0,0,0,.36,1.11,2.62,2.62,0,0,0,.91.62,10.64,10.64,0,0,0,1.17.41,5.52,5.52,0,0,1,1.17.48,2.52,2.52,0,0,1,.91.84,2.56,2.56,0,0,1,.36,1.46,3.44,3.44,0,0,1-.29,1.49,2.61,2.61,0,0,1-.76.93,2.8,2.8,0,0,1-1,.49,4.37,4.37,0,0,1-1.12.15,4.3,4.3,0,0,1-1.5-.23,2.24,2.24,0,0,1-.95-.67,2.6,2.6,0,0,1-.51-1.07,6.43,6.43,0,0,1-.15-1.46h1.3a8.25,8.25,0,0,0,0,.86,2.16,2.16,0,0,0,.23.77,1.4,1.4,0,0,0,.58.55,2.3,2.3,0,0,0,1.08.21,1.9,1.9,0,0,0,.71-.13,1.57,1.57,0,0,0,.56-.37,1.54,1.54,0,0,0,.38-.57,2,2,0,0,0,.14-.74,1.71,1.71,0,0,0-.21-.9,1.93,1.93,0,0,0-.56-.58,2.85,2.85,0,0,0-.78-.39l-.9-.31c-.3-.1-.6-.22-.89-.35a2.82,2.82,0,0,1-.79-.51,2.28,2.28,0,0,1-.55-.78A2.93,2.93,0,0,1,90,96.64a4.74,4.74,0,0,1,.1-.84,2.32,2.32,0,0,1,.43-.93,2.57,2.57,0,0,1,.91-.76A3.37,3.37,0,0,1,93,93.8a2.92,2.92,0,0,1,2.17.71,3.11,3.11,0,0,1,.71,2.16Z" transform="translate(-8.94 -10.84)"/></g></svg>