<svg id="Capa_1" data-name="Capa 1" xmlns="http://www.w3.org/2000/svg" viewBox="0 0 100 100"><defs><style>.cls-1{fill:#fff;}.cls-2{fill:#b2b2b2;}</style></defs><rect class="cls-1" x="44.39" y="76.99" width="47.37" height="4.88"/><path class="cls-2" d="M91.76,82.66H44.39a.78.78,0,0,1-.78-.79V77a.78.78,0,0,1,.78-.79H91.76a.79.79,0,0,1,.79.79v4.88A.79.79,0,0,1,91.76,82.66ZM45.18,81.08H91v-3.3H45.18Z"/><rect class="cls-1" x="40.4" y="82.45" width="55.36" height="9.21"/><path class="cls-2" d="M95.76,92.45H40.4a.79.79,0,0,1-.79-.79V82.45a.79.79,0,0,1,.79-.79H95.76a.79.79,0,0,1,.79.79v9.21A.79.79,0,0,1,95.76,92.45ZM41.19,90.87H95V83.24H41.19Z"/><path class="cls-1" d="M96.32,92.22H39.84V81.9H96.32Z"/><path class="cls-2" d="M96.32,93H39.84a.79.79,0,0,1-.79-.79V81.9a.79.79,0,0,1,.79-.79H96.32a.79.79,0,0,1,.79.79V92.22A.79.79,0,0,1,96.32,93ZM40.63,91.43h54.9V82.69H40.63Z"/><path class="cls-1" d="M58.86,46.26,57,44l-1.85-2.25S9.33,76.66,5.55,79.75s-.65,6.9-.65,6.9,3.12,3.81,6.89.72S58.86,46.26,58.86,46.26Z"/><path class="cls-2" d="M8.75,89.37h0a6.37,6.37,0,0,1-4.47-2.22A7.17,7.17,0,0,1,3,84.53a5.15,5.15,0,0,1,2-5.39c3.74-3.07,47.77-36.59,49.64-38a.8.8,0,0,1,1.09.13l3.69,4.51a.78.78,0,0,1-.09,1.09C57.61,48.4,16,84.92,12.29,88A5.53,5.53,0,0,1,8.75,89.37ZM55,42.84C49.6,47,9.54,77.51,6.05,80.36a3.63,3.63,0,0,0-1.47,3.82,5.41,5.41,0,0,0,.93,2,4.8,4.8,0,0,0,3.24,1.64h0a4,4,0,0,0,2.54-1c3.49-2.85,41.34-36.08,46.48-40.59Z"/><polygon class="cls-1" points="74.49 29.71 59.58 11.48 37.97 29.16 52.88 47.38 67.79 65.61 89.4 47.93 74.49 29.71"/><path class="cls-2" d="M67.79,66.4h-.07a.82.82,0,0,1-.54-.28L37.36,29.66a.8.8,0,0,1-.17-.58.82.82,0,0,1,.28-.53L59.08,10.87a.79.79,0,0,1,1.11.12L90,47.43a.8.8,0,0,1,.17.58.77.77,0,0,1-.28.53L68.29,66.22A.8.8,0,0,1,67.79,66.4ZM39.08,29.27,67.91,64.5,88.29,47.82,59.46,12.6Z"/><path class="cls-1" d="M69.62,68.38a4,4,0,0,1-5.68-.56h0a4,4,0,0,1,.57-5.68L86.72,44a4,4,0,0,1,5.69.57h0a4,4,0,0,1-.57,5.68Z"/><path class="cls-2" d="M67.07,70.09a4.82,4.82,0,0,1-4.8-5.31A4.77,4.77,0,0,1,64,61.53L86.22,43.35a4.82,4.82,0,0,1,7.86,4.21,4.73,4.73,0,0,1-1.74,3.26L70.12,69A4.82,4.82,0,0,1,67.07,70.09ZM89.28,43.84a3.3,3.3,0,0,0-2.06.73L65,62.75a3.26,3.26,0,0,0-.46,4.57,3.35,3.35,0,0,0,4.58.45L91.34,49.6a3.25,3.25,0,0,0-2.06-5.76Z"/><path class="cls-1" d="M40.72,33.07A4,4,0,0,1,35,32.5h0a4,4,0,0,1,.57-5.68L57.82,8.64a4.06,4.06,0,0,1,5.69.57h0a4,4,0,0,1-.57,5.68Z"/><path class="cls-2" d="M38.17,34.77a4.82,4.82,0,0,1-4.8-5.31,4.73,4.73,0,0,1,1.74-3.25L57.33,8a5,5,0,0,1,6.79.68,4.83,4.83,0,0,1-.68,6.79L41.22,33.68A4.84,4.84,0,0,1,38.17,34.77ZM60.38,8.52a3.22,3.22,0,0,0-2.06.73L36.11,27.43A3.25,3.25,0,0,0,35.66,32a3.32,3.32,0,0,0,4.56.45L62.44,14.28a3.25,3.25,0,0,0,.45-4.57A3.2,3.2,0,0,0,60.38,8.52Z"/></svg>